<mxfile host="65bd71144e">
    <diagram id="a_MnJXchcy1qs-E4Up5G" name="第 1 页">
        <mxGraphModel dx="866" dy="553" grid="1" gridSize="10" guides="1" tooltips="1" connect="1" arrows="1" fold="1" page="1" pageScale="1" pageWidth="827" pageHeight="1169" math="0" shadow="0">
            <root>
                <mxCell id="0"/>
                <mxCell id="1" parent="0"/>
            </root>
        </mxGraphModel>
    </diagram>
</mxfile>